<?xml version="1.0" encoding="UTF-8" standalone="no"?>
<!DOCTYPE svg PUBLIC "-//W3C//DTD SVG 1.1//EN"
 "http://www.w3.org/Graphics/SVG/1.1/DTD/svg11.dtd">
<!-- Generated by graphviz version 2.40.1 (20161225.0304)
 -->
<!-- Title: G Pages: 1 -->
<svg width="586pt" height="150pt"
 viewBox="0.00 0.00 586.30 150.20" xmlns="http://www.w3.org/2000/svg" xmlns:xlink="http://www.w3.org/1999/xlink">
<g id="graph0" class="graph" transform="scale(1 1) rotate(0) translate(4 146.2)">
<title>G</title>
<polygon fill="#ffffff" stroke="transparent" points="-4,4 -4,-146.2 582.3037,-146.2 582.3037,4 -4,4"/>
<!-- Sender -->
<g id="node1" class="node">
<title>Sender</title>
<path fill="none" stroke="#000000" d="M42.8087,-88.2C42.8087,-88.2 12.0637,-88.2 12.0637,-88.2 6.0637,-88.2 .0637,-82.2 .0637,-76.2 .0637,-76.2 .0637,-64.2 .0637,-64.2 .0637,-58.2 6.0637,-52.2 12.0637,-52.2 12.0637,-52.2 42.8087,-52.2 42.8087,-52.2 48.8087,-52.2 54.8087,-58.2 54.8087,-64.2 54.8087,-64.2 54.8087,-76.2 54.8087,-76.2 54.8087,-82.2 48.8087,-88.2 42.8087,-88.2"/>
<text text-anchor="middle" x="27.4362" y="-66" font-family="Times,serif" font-size="14.00" fill="#000000">Sender</text>
</g>
<!-- Loss -->
<g id="node2" class="node">
<title>Loss</title>
<polygon fill="#ff0000" stroke="#000000" points="300.3264,-142.2 200.7168,-124.2 300.3264,-106.2 399.9361,-124.2 300.3264,-142.2"/>
<text text-anchor="middle" x="300.3264" y="-120" font-family="Times,serif" font-size="14.00" fill="#000000">Packet 1 LOST</text>
</g>
<!-- Sender&#45;&gt;Loss -->
<g id="edge1" class="edge">
<title>Sender&#45;&gt;Loss</title>
<path fill="none" stroke="#000000" d="M54.8158,-84.392C60.6559,-86.9798 66.8742,-89.4198 72.8724,-91.2 120.072,-105.2084 174.6126,-113.3794 218.4527,-118.0857"/>
<polygon fill="#000000" stroke="#000000" points="218.1872,-121.5768 228.4941,-119.1236 218.9069,-114.6139 218.1872,-121.5768"/>
<text text-anchor="middle" x="127.6971" y="-116.4" font-family="Times,serif" font-size="14.00" fill="#000000">Send 0,1,2,3</text>
</g>
<!-- Retrans -->
<g id="node4" class="node">
<title>Retrans</title>
<polygon fill="#000000" stroke="#000000" points="365.6326,-88.2 235.0203,-88.2 235.0203,-52.2 365.6326,-52.2 365.6326,-88.2"/>
<text text-anchor="middle" x="300.3264" y="-66" font-family="Times,serif" font-size="14.00" fill="#000000">Retransmit ONLY 1</text>
</g>
<!-- Sender&#45;&gt;Retrans -->
<g id="edge4" class="edge">
<title>Sender&#45;&gt;Retrans</title>
<path fill="none" stroke="#000000" d="M54.8514,-70.2C94.2319,-70.2 168.2873,-70.2 224.7993,-70.2"/>
<polygon fill="#000000" stroke="#000000" points="225.1349,-73.7001 235.1348,-70.2 225.1348,-66.7001 225.1349,-73.7001"/>
<text text-anchor="middle" x="127.6971" y="-74.4" font-family="Times,serif" font-size="14.00" fill="#000000">Timeout/NAK on 1</text>
</g>
<!-- Rcvr -->
<g id="node3" class="node">
<title>Rcvr</title>
<path fill="none" stroke="#000000" d="M566.3901,-58.6014C566.3901,-58.6014 449.0447,-58.6014 449.0447,-58.6014 443.0447,-58.6014 437.0447,-52.6014 437.0447,-46.6014 437.0447,-46.6014 437.0447,-11.7986 437.0447,-11.7986 437.0447,-5.7986 443.0447,.2014 449.0447,.2014 449.0447,.2014 566.3901,.2014 566.3901,.2014 572.3901,.2014 578.3901,-5.7986 578.3901,-11.7986 578.3901,-11.7986 578.3901,-46.6014 578.3901,-46.6014 578.3901,-52.6014 572.3901,-58.6014 566.3901,-58.6014"/>
<text text-anchor="middle" x="507.7174" y="-41.8" font-family="Times,serif" font-size="14.00" fill="#000000">Receiver</text>
<text text-anchor="middle" x="507.7174" y="-25" font-family="Times,serif" font-size="14.00" fill="#000000">ACK: 0,2,3 (buffered)</text>
<text text-anchor="middle" x="507.7174" y="-8.2" font-family="Times,serif" font-size="14.00" fill="#000000">NAK: 1?</text>
</g>
<!-- Loss&#45;&gt;Rcvr -->
<g id="edge2" class="edge">
<title>Loss&#45;&gt;Rcvr</title>
<path fill="none" stroke="#000000" d="M347.026,-114.638C364.1191,-110.3462 383.3683,-104.5641 400.1311,-97.2 420.385,-88.3023 441.2518,-75.9637 459.1545,-64.2365"/>
<polygon fill="#000000" stroke="#000000" points="461.3104,-67.0058 467.6893,-58.5464 457.4273,-61.1815 461.3104,-67.0058"/>
</g>
<!-- Rcvr&#45;&gt;Sender -->
<g id="edge3" class="edge">
<title>Rcvr&#45;&gt;Sender</title>
<path fill="none" stroke="#000000" d="M437.119,-27.1C424.7908,-26.8084 412.0881,-26.5556 400.1311,-26.4 311.4234,-25.2459 288.5567,-15.434 200.5218,-26.4 152.7894,-32.3457 99.325,-47.1775 64.6172,-57.9375"/>
<polygon fill="#000000" stroke="#000000" points="63.3987,-54.6517 54.9108,-60.9925 65.5003,-61.3288 63.3987,-54.6517"/>
<text text-anchor="middle" x="300.3264" y="-31.4" font-family="Times,serif" font-size="14.00" fill="#000000">ACK 0,2,3</text>
</g>
</g>
</svg>
