<?xml version="1.0" encoding="UTF-8" standalone="no"?>
<!DOCTYPE svg PUBLIC "-//W3C//DTD SVG 1.1//EN"
 "http://www.w3.org/Graphics/SVG/1.1/DTD/svg11.dtd">
<!-- Generated by graphviz version 2.40.1 (20161225.0304)
 -->
<!-- Title: G Pages: 1 -->
<svg width="333pt" height="132pt"
 viewBox="0.00 0.00 333.34 131.90" xmlns="http://www.w3.org/2000/svg" xmlns:xlink="http://www.w3.org/1999/xlink">
<g id="graph0" class="graph" transform="scale(1 1) rotate(0) translate(4 127.9036)">
<title>G</title>
<polygon fill="#ffffff" stroke="transparent" points="-4,4 -4,-127.9036 329.3424,-127.9036 329.3424,4 -4,4"/>
<!-- Sender -->
<g id="node1" class="node">
<title>Sender</title>
<path fill="none" stroke="#000000" d="M42.8087,-97.1036C42.8087,-97.1036 12.0637,-97.1036 12.0637,-97.1036 6.0637,-97.1036 .0637,-91.1036 .0637,-85.1036 .0637,-85.1036 .0637,-73.1036 .0637,-73.1036 .0637,-67.1036 6.0637,-61.1036 12.0637,-61.1036 12.0637,-61.1036 42.8087,-61.1036 42.8087,-61.1036 48.8087,-61.1036 54.8087,-67.1036 54.8087,-73.1036 54.8087,-73.1036 54.8087,-85.1036 54.8087,-85.1036 54.8087,-91.1036 48.8087,-97.1036 42.8087,-97.1036"/>
<text text-anchor="middle" x="27.4362" y="-74.9036" font-family="Times,serif" font-size="14.00" fill="#000000">Sender</text>
</g>
<!-- Rcvr -->
<g id="node2" class="node">
<title>Rcvr</title>
<path fill="none" stroke="#000000" d="M313.216,-97.1036C313.216,-97.1036 271.7226,-97.1036 271.7226,-97.1036 265.7226,-97.1036 259.7226,-91.1036 259.7226,-85.1036 259.7226,-85.1036 259.7226,-73.1036 259.7226,-73.1036 259.7226,-67.1036 265.7226,-61.1036 271.7226,-61.1036 271.7226,-61.1036 313.216,-61.1036 313.216,-61.1036 319.216,-61.1036 325.216,-67.1036 325.216,-73.1036 325.216,-73.1036 325.216,-85.1036 325.216,-85.1036 325.216,-91.1036 319.216,-97.1036 313.216,-97.1036"/>
<text text-anchor="middle" x="292.4693" y="-74.9036" font-family="Times,serif" font-size="14.00" fill="#000000">Receiver</text>
</g>
<!-- Sender&#45;&gt;Rcvr -->
<g id="edge1" class="edge">
<title>Sender&#45;&gt;Rcvr</title>
<path fill="none" stroke="#000000" d="M54.812,-91.858C60.6524,-94.0334 66.8718,-95.9583 72.8724,-97.1036 146.5311,-111.1624 167.6893,-109.7931 241.5962,-97.1036 244.2739,-96.6439 246.9978,-96.0573 249.7231,-95.3785"/>
<polygon fill="#000000" stroke="#000000" points="250.8644,-98.6925 259.5174,-92.5789 248.9405,-91.9621 250.8644,-98.6925"/>
<text text-anchor="middle" x="157.2343" y="-111.3036" font-family="Times,serif" font-size="14.00" fill="#000000">Packets 0,1(LOST),2,3</text>
</g>
<!-- Sender&#45;&gt;Rcvr -->
<g id="edge3" class="edge">
<title>Sender&#45;&gt;Rcvr</title>
<path fill="none" stroke="#000000" d="M54.8141,-77.1431C60.7642,-76.7935 67.0268,-76.4836 72.8724,-76.3036 147.8253,-73.9963 166.6362,-74.2423 241.5962,-76.3036 244.1494,-76.3738 246.7738,-76.4638 249.4209,-76.5683"/>
<polygon fill="#000000" stroke="#000000" points="249.4925,-80.075 259.6407,-77.0312 249.8094,-73.0822 249.4925,-80.075"/>
<text text-anchor="middle" x="157.2343" y="-80.3036" font-family="Times,serif" font-size="14.00" fill="#000000">Retransmit 1</text>
</g>
<!-- Rcvr&#45;&gt;Sender -->
<g id="edge2" class="edge">
<title>Rcvr&#45;&gt;Sender</title>
<path fill="none" stroke="#000000" d="M281.678,-60.8498C272.7796,-47.7408 258.8383,-31.0979 241.5962,-23.5036 172.9696,6.7228 140.6276,8.6286 72.8724,-23.5036 60.0742,-29.5731 49.6859,-41.2079 42.0896,-52.2721"/>
<polygon fill="#ff0000" stroke="#000000" points="39.0126,-50.5886 36.6033,-60.9058 44.9206,-54.3429 39.0126,-50.5886"/>
<text text-anchor="middle" x="157.2343" y="-44.1036" font-family="Times,serif" font-size="14.00" fill="#000000">NAK 1</text>
<text text-anchor="middle" x="157.2343" y="-27.3036" font-family="Times,serif" font-size="14.00" fill="#000000">(Explicitly request retransmit)</text>
</g>
</g>
</svg>
