<?xml version="1.0" encoding="UTF-8" standalone="no"?>
<!DOCTYPE svg PUBLIC "-//W3C//DTD SVG 1.1//EN"
 "http://www.w3.org/Graphics/SVG/1.1/DTD/svg11.dtd">
<!-- Generated by graphviz version 2.40.1 (20161225.0304)
 -->
<!-- Title: runtime_env Pages: 1 -->
<svg width="798pt" height="174pt"
 viewBox="0.00 0.00 798.47 174.40" xmlns="http://www.w3.org/2000/svg" xmlns:xlink="http://www.w3.org/1999/xlink">
<g id="graph0" class="graph" transform="scale(1 1) rotate(0) translate(4 170.4)">
<title>runtime_env</title>
<polygon fill="#ffffff" stroke="transparent" points="-4,4 -4,-170.4 794.4726,-170.4 794.4726,4 -4,4"/>
<g id="clust1" class="cluster">
<title>cluster_memory</title>
<polygon fill="none" stroke="#000000" stroke-dasharray="5,2" points="281.4668,-26.4 281.4668,-158.4 782.4726,-158.4 782.4726,-26.4 281.4668,-26.4"/>
<text text-anchor="middle" x="531.9697" y="-141.8" font-family="Times,serif" font-size="14.00" fill="#000000">Runtime Memory Layout</text>
</g>
<!-- Stack -->
<g id="node1" class="node">
<title>Stack</title>
<polygon fill="#cce5ff" stroke="#000000" points="375.9676,-125.7005 289.6328,-125.7005 289.6328,-89.0995 375.9676,-89.0995 375.9676,-125.7005"/>
<text text-anchor="middle" x="332.8002" y="-111" font-family="Helvetica,sans-Serif" font-size="12.00" fill="#000000">Stack</text>
<text text-anchor="middle" x="332.8002" y="-96.6" font-family="Helvetica,sans-Serif" font-size="12.00" fill="#000000">(func frames)</text>
</g>
<!-- Heap -->
<g id="node2" class="node">
<title>Heap</title>
<polygon fill="#d4edda" stroke="#000000" points="599.9676,-97.7005 503.6432,-97.7005 503.6432,-61.0995 599.9676,-61.0995 599.9676,-97.7005"/>
<text text-anchor="middle" x="551.8054" y="-83" font-family="Helvetica,sans-Serif" font-size="12.00" fill="#000000">Heap</text>
<text text-anchor="middle" x="551.8054" y="-68.6" font-family="Helvetica,sans-Serif" font-size="12.00" fill="#000000">(dynamic alloc)</text>
</g>
<!-- Stack&#45;&gt;Heap -->
<g id="edge1" class="edge">
<title>Stack&#45;&gt;Heap</title>
<path fill="none" stroke="#000000" stroke-dasharray="1,5" d="M376.0686,-101.8681C409.5684,-97.5851 456.3158,-91.6084 493.1754,-86.8959"/>
<polygon fill="#000000" stroke="#000000" points="493.8149,-90.3427 503.2902,-85.6027 492.9271,-83.3992 493.8149,-90.3427"/>
<text text-anchor="middle" x="439.8041" y="-99.4" font-family="Helvetica,sans-Serif" font-size="10.00" fill="#000000">grows down</text>
</g>
<!-- Data -->
<g id="node3" class="node">
<title>Data</title>
<polygon fill="#e8d4ff" stroke="#000000" points="774.6414,-97.7005 674.9674,-97.7005 674.9674,-61.0995 774.6414,-61.0995 774.6414,-97.7005"/>
<text text-anchor="middle" x="724.8044" y="-83" font-family="Helvetica,sans-Serif" font-size="12.00" fill="#000000">Static Data</text>
<text text-anchor="middle" x="724.8044" y="-68.6" font-family="Helvetica,sans-Serif" font-size="12.00" fill="#000000">(globals/statics)</text>
</g>
<!-- Heap&#45;&gt;Data -->
<!-- Code -->
<g id="node4" class="node">
<title>Code</title>
<polygon fill="#fff3cd" stroke="#000000" points="374.9637,-70.7005 290.6367,-70.7005 290.6367,-34.0995 374.9637,-34.0995 374.9637,-70.7005"/>
<text text-anchor="middle" x="332.8002" y="-56" font-family="Helvetica,sans-Serif" font-size="12.00" fill="#000000">Code</text>
<text text-anchor="middle" x="332.8002" y="-41.6" font-family="Helvetica,sans-Serif" font-size="12.00" fill="#000000">(instructions)</text>
</g>
<!-- Runtime -->
<g id="node5" class="node">
<title>Runtime</title>
<polygon fill="#ffd700" stroke="#000000" points="252.3084,-36.7005 123.9428,-36.7005 123.9428,-.0995 252.3084,-.0995 252.3084,-36.7005"/>
<text text-anchor="middle" x="188.1256" y="-22" font-family="Helvetica,sans-Serif" font-size="12.00" fill="#000000">Runtime System</text>
<text text-anchor="middle" x="188.1256" y="-7.6" font-family="Helvetica,sans-Serif" font-size="12.00" fill="#000000">(GC, exceptions, I/O)</text>
</g>
<!-- Runtime&#45;&gt;Stack -->
<g id="edge4" class="edge">
<title>Runtime&#45;&gt;Stack</title>
<path fill="none" stroke="#000000" stroke-dasharray="5,2" d="M215.1281,-36.8627C233.575,-49.2724 258.7068,-65.785 281.4668,-79.4 284.0831,-80.9651 286.7919,-82.5482 289.5357,-84.1238"/>
<polygon fill="#000000" stroke="#000000" points="287.9181,-87.2297 298.3469,-89.0981 291.3594,-81.1341 287.9181,-87.2297"/>
</g>
<!-- Runtime&#45;&gt;Heap -->
<g id="edge5" class="edge">
<title>Runtime&#45;&gt;Heap</title>
<path fill="none" stroke="#000000" stroke-dasharray="5,2" d="M252.5075,-16.6664C289.0106,-16.7125 335.3948,-18.5025 376.1336,-25.4 416.5059,-32.2354 460.5472,-45.7878 494.4336,-57.6051"/>
<polygon fill="#000000" stroke="#000000" points="493.5637,-61.0098 504.1585,-61.0457 495.8985,-54.4107 493.5637,-61.0098"/>
</g>
<!-- Program -->
<g id="node6" class="node">
<title>Program</title>
<polygon fill="#f0f4ff" stroke="#000000" points="66.5004,-36.7005 .166,-36.7005 .166,-.0995 66.5004,-.0995 66.5004,-36.7005"/>
<text text-anchor="middle" x="33.3332" y="-22" font-family="Helvetica,sans-Serif" font-size="12.00" fill="#000000">Compiled</text>
<text text-anchor="middle" x="33.3332" y="-7.6" font-family="Helvetica,sans-Serif" font-size="12.00" fill="#000000">Program</text>
</g>
<!-- Program&#45;&gt;Runtime -->
<g id="edge3" class="edge">
<title>Program&#45;&gt;Runtime</title>
<path fill="none" stroke="#000000" d="M66.5401,-18.4C80.3704,-18.4 97.032,-18.4 113.5241,-18.4"/>
<polygon fill="#000000" stroke="#000000" points="113.744,-21.9001 123.744,-18.4 113.744,-14.9001 113.744,-21.9001"/>
<text text-anchor="middle" x="95.2254" y="-21.4" font-family="Helvetica,sans-Serif" font-size="10.00" fill="#000000">uses</text>
</g>
</g>
</svg>
