<?xml version="1.0" encoding="UTF-8" standalone="no"?>
<!DOCTYPE svg PUBLIC "-//W3C//DTD SVG 1.1//EN"
 "http://www.w3.org/Graphics/SVG/1.1/DTD/svg11.dtd">
<!-- Generated by graphviz version 2.40.1 (20161225.0304)
 -->
<!-- Title: etl_pipeline Pages: 1 -->
<svg width="662pt" height="126pt"
 viewBox="0.00 0.00 661.56 126.20" xmlns="http://www.w3.org/2000/svg" xmlns:xlink="http://www.w3.org/1999/xlink">
<g id="graph0" class="graph" transform="scale(1 1) rotate(0) translate(4 122.2)">
<title>etl_pipeline</title>
<polygon fill="#ffffff" stroke="transparent" points="-4,4 -4,-122.2 657.561,-122.2 657.561,4 -4,4"/>
<!-- sources -->
<g id="node1" class="node">
<title>sources</title>
<polygon fill="#e8e8e8" stroke="#000000" points="91.2909,-74.8 -.0971,-74.8 -.0971,-38.8 91.2909,-38.8 91.2909,-74.8"/>
<text text-anchor="middle" x="45.5969" y="-60.1" font-family="Helvetica,sans-Serif" font-size="11.00" fill="#000000">Heterogeneous</text>
<text text-anchor="middle" x="45.5969" y="-46.9" font-family="Helvetica,sans-Serif" font-size="11.00" fill="#000000">Sources</text>
</g>
<!-- extract -->
<g id="node2" class="node">
<title>extract</title>
<polygon fill="#f8d7da" stroke="#000000" points="224.832,-102.8 127.3142,-102.8 127.3142,-66.8 224.832,-66.8 224.832,-102.8"/>
<text text-anchor="middle" x="176.0731" y="-88.1" font-family="Helvetica,sans-Serif" font-size="11.00" fill="#000000">Extract</text>
<text text-anchor="middle" x="176.0731" y="-74.9" font-family="Helvetica,sans-Serif" font-size="11.00" fill="#000000">Raw &quot;as is&quot; Data</text>
</g>
<!-- sources&#45;&gt;extract -->
<g id="edge1" class="edge">
<title>sources&#45;&gt;extract</title>
<path fill="none" stroke="#000000" d="M91.2311,-66.593C99.6673,-68.4034 108.5855,-70.3173 117.3457,-72.1972"/>
<polygon fill="#000000" stroke="#000000" points="116.623,-75.6217 127.1348,-74.2979 118.0918,-68.7775 116.623,-75.6217"/>
</g>
<!-- refresh -->
<g id="node6" class="node">
<title>refresh</title>
<polygon fill="#ffe5cc" stroke="#000000" points="384.378,-47.4017 264.7709,-47.4017 264.7709,-.1983 384.378,-.1983 384.378,-47.4017"/>
<text text-anchor="middle" x="324.5744" y="-33.7" font-family="Helvetica,sans-Serif" font-size="11.00" fill="#000000">Refresh</text>
<text text-anchor="middle" x="324.5744" y="-20.5" font-family="Helvetica,sans-Serif" font-size="11.00" fill="#000000">Data Shipping</text>
<text text-anchor="middle" x="324.5744" y="-7.3" font-family="Helvetica,sans-Serif" font-size="11.00" fill="#000000">Transaction Shipping</text>
</g>
<!-- sources&#45;&gt;refresh -->
<g id="edge5" class="edge">
<title>sources&#45;&gt;refresh</title>
<path fill="none" stroke="#000000" stroke-dasharray="5,2" d="M91.352,-51.3877C135.7697,-46.1335 203.7885,-38.0877 254.9276,-32.0385"/>
<polygon fill="#000000" stroke="#000000" points="255.3987,-35.5072 264.9183,-30.8567 254.5764,-28.5557 255.3987,-35.5072"/>
</g>
<!-- clean -->
<g id="node3" class="node">
<title>clean</title>
<polygon fill="#fff3cd" stroke="#000000" points="388.3188,-113.4017 260.8301,-113.4017 260.8301,-66.1983 388.3188,-66.1983 388.3188,-113.4017"/>
<text text-anchor="middle" x="324.5744" y="-99.7" font-family="Helvetica,sans-Serif" font-size="11.00" fill="#000000">Clean &amp; Transform</text>
<text text-anchor="middle" x="324.5744" y="-86.5" font-family="Helvetica,sans-Serif" font-size="11.00" fill="#000000">Scrubbing, Enrichment</text>
<text text-anchor="middle" x="324.5744" y="-73.3" font-family="Helvetica,sans-Serif" font-size="11.00" fill="#000000">Conditioning, Scoring</text>
</g>
<!-- extract&#45;&gt;clean -->
<g id="edge2" class="edge">
<title>extract&#45;&gt;clean</title>
<path fill="none" stroke="#000000" d="M225.1096,-86.451C233.307,-86.7271 241.9698,-87.0187 250.627,-87.3102"/>
<polygon fill="#000000" stroke="#000000" points="250.647,-90.8128 260.7591,-87.6514 250.8826,-83.8167 250.647,-90.8128"/>
</g>
<!-- load -->
<g id="node4" class="node">
<title>load</title>
<polygon fill="#d4edda" stroke="#000000" points="518.9653,-118.1003 424.2735,-118.1003 424.2735,-57.4997 518.9653,-57.4997 518.9653,-118.1003"/>
<text text-anchor="middle" x="471.6194" y="-104.3" font-family="Helvetica,sans-Serif" font-size="11.00" fill="#000000">Load</text>
<text text-anchor="middle" x="471.6194" y="-91.1" font-family="Helvetica,sans-Serif" font-size="11.00" fill="#000000">Batch Insert</text>
<text text-anchor="middle" x="471.6194" y="-77.9" font-family="Helvetica,sans-Serif" font-size="11.00" fill="#000000">Integrity Checks</text>
<text text-anchor="middle" x="471.6194" y="-64.7" font-family="Helvetica,sans-Serif" font-size="11.00" fill="#000000">Checkpoints</text>
</g>
<!-- clean&#45;&gt;load -->
<g id="edge3" class="edge">
<title>clean&#45;&gt;load</title>
<path fill="none" stroke="#000000" d="M388.2153,-88.9344C396.7133,-88.8188 405.3907,-88.7008 413.7821,-88.5867"/>
<polygon fill="#000000" stroke="#000000" points="413.8933,-92.0856 423.8448,-88.4498 413.7981,-85.0862 413.8933,-92.0856"/>
</g>
<!-- warehouse -->
<g id="node5" class="node">
<title>warehouse</title>
<polygon fill="#cce5ff" stroke="#000000" points="653.3215,-74.8 559.2818,-74.8 555.2818,-70.8 555.2818,-38.8 649.3215,-38.8 653.3215,-42.8 653.3215,-74.8"/>
<polyline fill="none" stroke="#000000" points="649.3215,-70.8 555.2818,-70.8 "/>
<polyline fill="none" stroke="#000000" points="649.3215,-70.8 649.3215,-38.8 "/>
<polyline fill="none" stroke="#000000" points="649.3215,-70.8 653.3215,-74.8 "/>
<text text-anchor="middle" x="604.3016" y="-53.5" font-family="Helvetica,sans-Serif" font-size="11.00" fill="#000000">Data Warehouse</text>
</g>
<!-- load&#45;&gt;warehouse -->
<g id="edge4" class="edge">
<title>load&#45;&gt;warehouse</title>
<path fill="none" stroke="#000000" d="M519.146,-76.6958C527.4835,-74.7479 536.2532,-72.6989 544.8659,-70.6866"/>
<polygon fill="#000000" stroke="#000000" points="545.9277,-74.0329 554.8692,-68.3495 544.3351,-67.2165 545.9277,-74.0329"/>
</g>
<!-- refresh&#45;&gt;warehouse -->
<g id="edge6" class="edge">
<title>refresh&#45;&gt;warehouse</title>
<path fill="none" stroke="#000000" stroke-dasharray="5,2" d="M384.2398,-30.8389C431.627,-36.4292 497.5651,-44.2081 544.8867,-49.7907"/>
<polygon fill="#000000" stroke="#000000" points="544.6468,-53.2866 554.988,-50.9824 545.467,-46.3348 544.6468,-53.2866"/>
</g>
</g>
</svg>
