<?xml version="1.0" encoding="UTF-8" standalone="no"?>
<!DOCTYPE svg PUBLIC "-//W3C//DTD SVG 1.1//EN"
 "http://www.w3.org/Graphics/SVG/1.1/DTD/svg11.dtd">
<!-- Generated by graphviz version 2.40.1 (20161225.0304)
 -->
<!-- Title: G Pages: 1 -->
<svg width="667pt" height="81pt"
 viewBox="0.00 0.00 667.14 81.00" xmlns="http://www.w3.org/2000/svg" xmlns:xlink="http://www.w3.org/1999/xlink">
<g id="graph0" class="graph" transform="scale(1 1) rotate(0) translate(4 77)">
<title>G</title>
<polygon fill="#ffffff" stroke="transparent" points="-4,4 -4,-77 663.1356,-77 663.1356,4 -4,4"/>
<!-- Browser -->
<g id="node1" class="node">
<title>Browser</title>
<polygon fill="#000000" stroke="#000000" points="63.6368,-36 -.2132,-36 -.2132,0 63.6368,0 63.6368,-36"/>
<text text-anchor="middle" x="31.7118" y="-13.8" font-family="Times,serif" font-size="14.00" fill="#000000">Browser</text>
</g>
<!-- Web Server -->
<g id="node2" class="node">
<title>Web Server</title>
<path fill="none" stroke="#000000" d="M251.5432,-73C251.5432,-73 192.6162,-73 192.6162,-73 186.6162,-73 180.6162,-67 180.6162,-61 180.6162,-61 180.6162,-49 180.6162,-49 180.6162,-43 186.6162,-37 192.6162,-37 192.6162,-37 251.5432,-37 251.5432,-37 257.5432,-37 263.5432,-43 263.5432,-49 263.5432,-49 263.5432,-61 263.5432,-61 263.5432,-67 257.5432,-73 251.5432,-73"/>
<text text-anchor="middle" x="222.0797" y="-50.8" font-family="Times,serif" font-size="14.00" fill="#000000">Web Server</text>
</g>
<!-- Browser&#45;&gt;Web Server -->
<g id="edge1" class="edge">
<title>Browser&#45;&gt;Web Server</title>
<path fill="none" stroke="#000000" d="M63.5751,-24.193C92.7356,-29.8606 136.4073,-38.3487 170.5306,-44.9809"/>
<polygon fill="#000000" stroke="#000000" points="170.3033,-48.5021 180.7874,-46.9744 171.6388,-41.6307 170.3033,-48.5021"/>
<text text-anchor="middle" x="120.8833" y="-45.2" font-family="Times,serif" font-size="14.00" fill="#000000">HTTP request</text>
</g>
<!-- Servlet -->
<g id="node3" class="node">
<title>Servlet</title>
<polygon fill="#add8e6" stroke="#000000" points="408.1906,-36 354.1098,-18 408.1906,0 462.2715,-18 408.1906,-36"/>
<text text-anchor="middle" x="408.1906" y="-13.8" font-family="Times,serif" font-size="14.00" fill="#000000">Servlet</text>
</g>
<!-- Web Server&#45;&gt;Servlet -->
<g id="edge2" class="edge">
<title>Web Server&#45;&gt;Servlet</title>
<path fill="none" stroke="#000000" d="M263.3837,-46.7885C293.306,-40.8398 333.696,-32.81 364.217,-26.7422"/>
<polygon fill="#000000" stroke="#000000" points="365.0343,-30.1483 374.1599,-24.7655 363.6693,-23.2827 365.0343,-30.1483"/>
<text text-anchor="middle" x="309.8585" y="-45.2" font-family="Times,serif" font-size="14.00" fill="#000000">delegates</text>
</g>
<!-- Servlet&#45;&gt;Browser -->
<g id="edge4" class="edge">
<title>Servlet&#45;&gt;Browser</title>
<path fill="none" stroke="#000000" d="M362.0444,-15.2375C334.189,-13.7091 297.9769,-11.9676 265.8164,-11.2 226.9504,-10.2724 217.2096,-10.2993 178.343,-11.2 143.0589,-12.0177 103.0373,-13.9408 73.7305,-15.534"/>
<polygon fill="#000000" stroke="#000000" points="73.2379,-12.0558 63.4467,-16.1033 73.6249,-19.0451 73.2379,-12.0558"/>
<text text-anchor="middle" x="222.0797" y="-16.2" font-family="Times,serif" font-size="14.00" fill="#000000">HTTP response</text>
</g>
<!-- EJB Component -->
<g id="node4" class="node">
<title>EJB Component</title>
<polygon fill="#ffffe0" stroke="#000000" points="659.2189,-36 550.8862,-36 550.8862,0 659.2189,0 659.2189,-36"/>
<text text-anchor="middle" x="605.0525" y="-13.8" font-family="Times,serif" font-size="14.00" fill="#000000">EJB Component</text>
</g>
<!-- Servlet&#45;&gt;EJB Component -->
<g id="edge3" class="edge">
<title>Servlet&#45;&gt;EJB Component</title>
<path fill="none" stroke="#000000" d="M462.5051,-18C486.7117,-18 515.4064,-18 540.683,-18"/>
<polygon fill="#000000" stroke="#000000" points="540.9153,-21.5001 550.9153,-18 540.9152,-14.5001 540.9153,-21.5001"/>
<text text-anchor="middle" x="506.725" y="-22.2" font-family="Times,serif" font-size="14.00" fill="#000000">calls EJB</text>
</g>
</g>
</svg>
