<?xml version="1.0" encoding="UTF-8" standalone="no"?>
<!DOCTYPE svg PUBLIC "-//W3C//DTD SVG 1.1//EN"
 "http://www.w3.org/Graphics/SVG/1.1/DTD/svg11.dtd">
<!-- Generated by graphviz version 2.40.1 (20161225.0304)
 -->
<!-- Title: LocationTransparency Pages: 1 -->
<svg width="338pt" height="293pt"
 viewBox="0.00 0.00 337.94 292.80" xmlns="http://www.w3.org/2000/svg" xmlns:xlink="http://www.w3.org/1999/xlink">
<g id="graph0" class="graph" transform="scale(1 1) rotate(0) translate(4 288.8)">
<title>LocationTransparency</title>
<polygon fill="#ffffff" stroke="transparent" points="-4,4 -4,-288.8 333.9448,-288.8 333.9448,4 -4,4"/>
<g id="clust1" class="cluster">
<title>cluster_server</title>
<polygon fill="none" stroke="#000000" points="15.7588,-8 15.7588,-90.4 156.7588,-90.4 156.7588,-8 15.7588,-8"/>
<text text-anchor="middle" x="86.2588" y="-73.8" font-family="Times,serif" font-size="14.00" fill="#000000">Server (Any Machine)</text>
</g>
<!-- Client -->
<g id="node1" class="node">
<title>Client</title>
<polygon fill="#add8e6" stroke="#000000" points="166.3118,-284.6019 5.2058,-284.6019 5.2058,-243.3981 166.3118,-243.3981 166.3118,-284.6019"/>
<text text-anchor="middle" x="85.7588" y="-268.2" font-family="Times,serif" font-size="14.00" fill="#000000">Client Code</text>
<text text-anchor="middle" x="85.7588" y="-251.4" font-family="Times,serif" font-size="14.00" fill="#000000">ctx.lookup(&quot;HelloHome&quot;)</text>
</g>
<!-- JNDI -->
<g id="node2" class="node">
<title>JNDI</title>
<path fill="#ffffe0" stroke="#000000" d="M171.2771,-185.2821C171.2771,-188.1614 132.9464,-190.5004 85.7588,-190.5004 38.5712,-190.5004 .2405,-188.1614 .2405,-185.2821 .2405,-185.2821 .2405,-138.3179 .2405,-138.3179 .2405,-135.4386 38.5712,-133.0996 85.7588,-133.0996 132.9464,-133.0996 171.2771,-135.4386 171.2771,-138.3179 171.2771,-138.3179 171.2771,-185.2821 171.2771,-185.2821"/>
<path fill="none" stroke="#000000" d="M171.2771,-185.2821C171.2771,-182.4028 132.9464,-180.0639 85.7588,-180.0639 38.5712,-180.0639 .2405,-182.4028 .2405,-185.2821"/>
<text text-anchor="middle" x="85.7588" y="-166" font-family="Times,serif" font-size="14.00" fill="#000000">JNDI Naming Service</text>
<text text-anchor="middle" x="85.7588" y="-149.2" font-family="Times,serif" font-size="14.00" fill="#000000">(LDAP, COS Naming, etc.)</text>
</g>
<!-- Client&#45;&gt;JNDI -->
<g id="edge1" class="edge">
<title>Client&#45;&gt;JNDI</title>
<path fill="none" stroke="#000000" d="M26.6391,-243.2817C19.5516,-238.4164 13.2542,-232.4637 8.7812,-225.2 2.1192,-214.3817 5.6017,-204.556 13.9603,-196.0428"/>
<polygon fill="#000000" stroke="#000000" points="16.2828,-198.662 21.6085,-189.5029 11.7336,-193.3418 16.2828,-198.662"/>
<text text-anchor="middle" x="76.2476" y="-212.6" font-family="Times,serif" font-size="14.00" fill="#000000">1. Lookup by nickname</text>
</g>
<!-- JNDI&#45;&gt;Client -->
<g id="edge3" class="edge">
<title>JNDI&#45;&gt;Client</title>
<path fill="none" stroke="#000000" d="M131.7051,-190.5039C142.0599,-200.6727 148.2997,-212.7107 141.7588,-225.2 139.6333,-229.2585 136.8689,-232.9772 133.7077,-236.3658"/>
<polygon fill="#000000" stroke="#000000" points="131.2155,-233.9033 126.2473,-243.2611 135.9667,-239.044 131.2155,-233.9033"/>
<text text-anchor="middle" x="236.8518" y="-212.6" font-family="Times,serif" font-size="14.00" fill="#000000">3. Return Home Object reference</text>
</g>
<!-- Home -->
<g id="node3" class="node">
<title>Home</title>
<polygon fill="#000000" stroke="#000000" points="131.2876,-57.4019 40.23,-57.4019 40.23,-16.1981 131.2876,-16.1981 131.2876,-57.4019"/>
<text text-anchor="middle" x="85.7588" y="-41" font-family="Times,serif" font-size="14.00" fill="#000000">Home Object</text>
<text text-anchor="middle" x="85.7588" y="-24.2" font-family="Times,serif" font-size="14.00" fill="#000000">(HelloHome)</text>
</g>
<!-- JNDI&#45;&gt;Home -->
<g id="edge2" class="edge">
<title>JNDI&#45;&gt;Home</title>
<path fill="none" stroke="#000000" d="M85.7588,-133.1225C85.7588,-113.5711 85.7588,-87.7008 85.7588,-67.6943"/>
<polygon fill="#000000" stroke="#000000" points="89.2589,-67.5464 85.7588,-57.5464 82.2589,-67.5464 89.2589,-67.5464"/>
<text text-anchor="middle" x="168.7445" y="-102.6" font-family="Times,serif" font-size="14.00" fill="#000000">2. Resolve to actual reference</text>
</g>
</g>
</svg>
