<?xml version="1.0" encoding="UTF-8" standalone="no"?>
<!DOCTYPE svg PUBLIC "-//W3C//DTD SVG 1.1//EN"
 "http://www.w3.org/Graphics/SVG/1.1/DTD/svg11.dtd">
<!-- Generated by graphviz version 2.40.1 (20161225.0304)
 -->
<!-- Title: user_io Pages: 1 -->
<svg width="179pt" height="333pt"
 viewBox="0.00 0.00 179.27 332.80" xmlns="http://www.w3.org/2000/svg" xmlns:xlink="http://www.w3.org/1999/xlink">
<g id="graph0" class="graph" transform="scale(1 1) rotate(0) translate(4 328.8)">
<title>user_io</title>
<polygon fill="#ffffff" stroke="transparent" points="-4,4 -4,-328.8 175.2736,-328.8 175.2736,4 -4,4"/>
<!-- App -->
<g id="node1" class="node">
<title>App</title>
<polygon fill="#ffffe0" stroke="#000000" points="140.6234,-324.6019 -.2082,-324.6019 -.2082,-283.3981 140.6234,-283.3981 140.6234,-324.6019"/>
<text text-anchor="middle" x="70.2076" y="-308.2" font-family="Times,serif" font-size="14.00" fill="#000000">Application</text>
<text text-anchor="middle" x="70.2076" y="-291.4" font-family="Times,serif" font-size="14.00" fill="#000000">C program, text editor</text>
</g>
<!-- Lib -->
<g id="node2" class="node">
<title>Lib</title>
<polygon fill="#000000" stroke="#000000" points="131.2206,-230.2019 9.1946,-230.2019 9.1946,-188.9981 131.2206,-188.9981 131.2206,-230.2019"/>
<text text-anchor="middle" x="70.2076" y="-213.8" font-family="Times,serif" font-size="14.00" fill="#000000">User&#45;Level I/O</text>
<text text-anchor="middle" x="70.2076" y="-197" font-family="Times,serif" font-size="14.00" fill="#000000">fopen, printf, scanf</text>
</g>
<!-- App&#45;&gt;Lib -->
<g id="edge1" class="edge">
<title>App&#45;&gt;Lib</title>
<path fill="none" stroke="#000000" d="M70.2076,-283.0496C70.2076,-270.5835 70.2076,-254.5355 70.2076,-240.6214"/>
<polygon fill="#000000" stroke="#000000" points="73.7077,-240.4918 70.2076,-230.4919 66.7077,-240.4919 73.7077,-240.4918"/>
<text text-anchor="middle" x="103.4436" y="-252.6" font-family="Times,serif" font-size="14.00" fill="#000000">library calls</text>
</g>
<!-- Syscall -->
<g id="node3" class="node">
<title>Syscall</title>
<polygon fill="#add8e6" stroke="#000000" points="139.2386,-135.8019 1.1766,-135.8019 1.1766,-94.5981 139.2386,-94.5981 139.2386,-135.8019"/>
<text text-anchor="middle" x="70.2076" y="-119.4" font-family="Times,serif" font-size="14.00" fill="#000000">System Call Interface</text>
<text text-anchor="middle" x="70.2076" y="-102.6" font-family="Times,serif" font-size="14.00" fill="#000000">read(), write(), open()</text>
</g>
<!-- Lib&#45;&gt;Syscall -->
<g id="edge2" class="edge">
<title>Lib&#45;&gt;Syscall</title>
<path fill="none" stroke="#000000" d="M70.2076,-188.6496C70.2076,-176.1835 70.2076,-160.1355 70.2076,-146.2214"/>
<polygon fill="#000000" stroke="#000000" points="73.7077,-146.0918 70.2076,-136.0919 66.7077,-146.0919 73.7077,-146.0918"/>
<text text-anchor="middle" x="101.5053" y="-158.2" font-family="Times,serif" font-size="14.00" fill="#000000">system call</text>
</g>
<!-- Kernel -->
<g id="node4" class="node">
<title>Kernel</title>
<polygon fill="#d3d3d3" stroke="#000000" points="117.3263,-41.4019 23.0889,-41.4019 23.0889,-.1981 117.3263,-.1981 117.3263,-41.4019"/>
<text text-anchor="middle" x="70.2076" y="-25" font-family="Times,serif" font-size="14.00" fill="#000000">Kernel Space</text>
<text text-anchor="middle" x="70.2076" y="-8.2" font-family="Times,serif" font-size="14.00" fill="#000000">(lower layers)</text>
</g>
<!-- Syscall&#45;&gt;Kernel -->
<g id="edge3" class="edge">
<title>Syscall&#45;&gt;Kernel</title>
<path fill="none" stroke="#000000" d="M70.2076,-94.2496C70.2076,-81.7835 70.2076,-65.7355 70.2076,-51.8214"/>
<polygon fill="#000000" stroke="#000000" points="73.7077,-51.6918 70.2076,-41.6919 66.7077,-51.6919 73.7077,-51.6918"/>
<text text-anchor="middle" x="120.7406" y="-63.8" font-family="Times,serif" font-size="14.00" fill="#000000">enter kernel mode</text>
</g>
</g>
</svg>
