<?xml version="1.0" encoding="UTF-8" standalone="no"?>
<!DOCTYPE svg PUBLIC "-//W3C//DTD SVG 1.1//EN"
 "http://www.w3.org/Graphics/SVG/1.1/DTD/svg11.dtd">
<!-- Generated by graphviz version 2.40.1 (20161225.0304)
 -->
<!-- Title: dns_resolution Pages: 1 -->
<svg width="567pt" height="214pt"
 viewBox="0.00 0.00 566.94 213.60" xmlns="http://www.w3.org/2000/svg" xmlns:xlink="http://www.w3.org/1999/xlink">
<g id="graph0" class="graph" transform="scale(1 1) rotate(0) translate(4 209.6)">
<title>dns_resolution</title>
<polygon fill="#ffffff" stroke="transparent" points="-4,4 -4,-209.6 562.939,-209.6 562.939,4 -4,4"/>
<!-- USER -->
<g id="node1" class="node">
<title>USER</title>
<polygon fill="#f0f4ff" stroke="#000000" points="223.8376,-205.6 123.5044,-205.6 123.5044,-169.6 223.8376,-169.6 223.8376,-205.6"/>
<text text-anchor="middle" x="173.671" y="-184" font-family="Helvetica,sans-Serif" font-size="12.00" fill="#000000">Browser / Client</text>
</g>
<!-- CACHE -->
<g id="node2" class="node">
<title>CACHE</title>
<polygon fill="#cce5ff" stroke="#000000" points="156.6834,-121.5005 18.6586,-121.5005 18.6586,-84.8995 156.6834,-84.8995 156.6834,-121.5005"/>
<text text-anchor="middle" x="87.671" y="-106.8" font-family="Helvetica,sans-Serif" font-size="12.00" fill="#000000">Cache</text>
<text text-anchor="middle" x="87.671" y="-92.4" font-family="Helvetica,sans-Serif" font-size="12.00" fill="#000000">(Browser → OS → ISP)</text>
</g>
<!-- USER&#45;&gt;CACHE -->
<g id="edge1" class="edge">
<title>USER&#45;&gt;CACHE</title>
<path fill="none" stroke="#000000" d="M123.267,-180.9113C88.6171,-175.1598 46.9892,-165.5632 36.212,-151.6 29.7862,-143.2745 33.4388,-135.096 41.139,-127.9002"/>
<polygon fill="#000000" stroke="#000000" points="43.4705,-130.5196 49.1756,-121.592 39.1484,-125.0133 43.4705,-130.5196"/>
<text text-anchor="middle" x="73.9005" y="-142.6" font-family="Helvetica,sans-Serif" font-size="10.00" fill="#000000">check cache first</text>
</g>
<!-- RESOLVER -->
<g id="node3" class="node">
<title>RESOLVER</title>
<polygon fill="#cce5ff" stroke="#000000" points="310.6714,-121.2 190.6706,-121.2 190.6706,-85.2 310.6714,-85.2 310.6714,-121.2"/>
<text text-anchor="middle" x="250.671" y="-99.6" font-family="Helvetica,sans-Serif" font-size="12.00" fill="#000000">Recursive Resolver</text>
</g>
<!-- USER&#45;&gt;RESOLVER -->
<g id="edge2" class="edge">
<title>USER&#45;&gt;RESOLVER</title>
<path fill="none" stroke="#000000" d="M189.425,-169.1867C197.222,-160.1786 206.8346,-149.2282 215.667,-139.6 218.9045,-136.0708 222.3541,-132.3905 225.7779,-128.7841"/>
<polygon fill="#000000" stroke="#000000" points="228.3081,-131.2024 232.6932,-121.5576 223.2506,-126.3627 228.3081,-131.2024"/>
<text text-anchor="middle" x="240.673" y="-142.6" font-family="Helvetica,sans-Serif" font-size="10.00" fill="#000000">cache miss</text>
</g>
<!-- CACHE&#45;&gt;USER -->
<g id="edge10" class="edge">
<title>CACHE&#45;&gt;USER</title>
<path fill="none" stroke="#000000" d="M106.5923,-121.7693C118.6222,-133.5753 134.3626,-149.0229 147.5723,-161.9868"/>
<polygon fill="#000000" stroke="#000000" points="145.4216,-164.7801 155.0103,-169.2865 150.3246,-159.7841 145.4216,-164.7801"/>
<text text-anchor="middle" x="166.401" y="-142.6" font-family="Helvetica,sans-Serif" font-size="10.00" fill="#000000">cached result</text>
</g>
<!-- RESOLVER&#45;&gt;USER -->
<g id="edge9" class="edge">
<title>RESOLVER&#45;&gt;USER</title>
<path fill="none" stroke="#000000" d="M263.4273,-121.3477C268.4933,-130.9531 271.8205,-142.5902 265.671,-151.6 261.2471,-158.0817 248.2308,-164.5294 233.3301,-170.1392"/>
<polygon fill="#000000" stroke="#000000" points="232.11,-166.8583 223.8688,-173.5166 234.4634,-173.4509 232.11,-166.8583"/>
<text text-anchor="middle" x="288.8415" y="-142.6" font-family="Helvetica,sans-Serif" font-size="10.00" fill="#000000">return IP</text>
</g>
<!-- ROOT -->
<g id="node4" class="node">
<title>ROOT</title>
<polygon fill="#ffe5cc" stroke="#000000" points="115.5135,-36.4 -.1715,-36.4 -.1715,-.4 115.5135,-.4 115.5135,-36.4"/>
<text text-anchor="middle" x="57.671" y="-14.8" font-family="Helvetica,sans-Serif" font-size="12.00" fill="#000000">Root Name Server</text>
</g>
<!-- RESOLVER&#45;&gt;ROOT -->
<g id="edge3" class="edge">
<title>RESOLVER&#45;&gt;ROOT</title>
<path fill="none" stroke="#000000" d="M190.4495,-89.379C182.1499,-87.7042 173.7165,-86.1215 165.671,-84.8 130.4839,-79.0205 29.9782,-93.3911 6.22,-66.8 -1.1848,-58.5122 3.1008,-50.0269 11.7279,-42.5224"/>
<polygon fill="#000000" stroke="#000000" points="13.9117,-45.2599 19.8345,-36.4752 9.7262,-39.6491 13.9117,-45.2599"/>
<text text-anchor="middle" x="33.8965" y="-57.8" font-family="Helvetica,sans-Serif" font-size="10.00" fill="#000000">ask for .com</text>
</g>
<!-- TLD -->
<g id="node5" class="node">
<title>TLD</title>
<polygon fill="#ffe5cc" stroke="#000000" points="273.8387,-36.7005 161.5033,-36.7005 161.5033,-.0995 273.8387,-.0995 273.8387,-36.7005"/>
<text text-anchor="middle" x="217.671" y="-22" font-family="Helvetica,sans-Serif" font-size="12.00" fill="#000000">TLD Name Server</text>
<text text-anchor="middle" x="217.671" y="-7.6" font-family="Helvetica,sans-Serif" font-size="12.00" fill="#000000">(.com, .org, etc.)</text>
</g>
<!-- RESOLVER&#45;&gt;TLD -->
<g id="edge5" class="edge">
<title>RESOLVER&#45;&gt;TLD</title>
<path fill="none" stroke="#000000" d="M211.1946,-85.0107C204.4639,-80.0836 198.3814,-74.0536 194.436,-66.8 190.823,-60.1575 191.8331,-52.8645 194.8992,-46.0003"/>
<polygon fill="#000000" stroke="#000000" points="198.1253,-47.4139 200.1134,-37.0073 192.0696,-43.9028 198.1253,-47.4139"/>
<text text-anchor="middle" x="240.7885" y="-57.8" font-family="Helvetica,sans-Serif" font-size="10.00" fill="#000000">ask for example.com</text>
</g>
<!-- AUTH -->
<g id="node6" class="node">
<title>AUTH</title>
<polygon fill="#d4edda" stroke="#000000" points="526.8557,-36.4 370.4863,-36.4 370.4863,-.4 526.8557,-.4 526.8557,-36.4"/>
<text text-anchor="middle" x="448.671" y="-14.8" font-family="Helvetica,sans-Serif" font-size="12.00" fill="#000000">Authoritative Name Server</text>
</g>
<!-- RESOLVER&#45;&gt;AUTH -->
<g id="edge7" class="edge">
<title>RESOLVER&#45;&gt;AUTH</title>
<path fill="none" stroke="#000000" d="M310.7672,-90.4512C332.7113,-84.6806 357.3603,-76.8589 378.671,-66.8 392.4331,-60.3042 406.4526,-51.2004 418.2946,-42.6389"/>
<polygon fill="#000000" stroke="#000000" points="420.5571,-45.3183 426.4978,-36.5456 416.3831,-39.6989 420.5571,-45.3183"/>
<text text-anchor="middle" x="420.787" y="-57.8" font-family="Helvetica,sans-Serif" font-size="10.00" fill="#000000">ask for IP</text>
</g>
<!-- ROOT&#45;&gt;RESOLVER -->
<g id="edge4" class="edge">
<title>ROOT&#45;&gt;RESOLVER</title>
<path fill="none" stroke="#000000" d="M69.6444,-36.5596C77.3784,-46.9054 88.3259,-59.2688 100.885,-66.8 108.1751,-71.1716 145.1244,-80.17 180.497,-88.1257"/>
<polygon fill="#000000" stroke="#000000" points="179.8838,-91.5749 190.4061,-90.3372 181.4087,-84.743 179.8838,-91.5749"/>
<text text-anchor="middle" x="145.564" y="-57.8" font-family="Helvetica,sans-Serif" font-size="10.00" fill="#000000">TLD server address</text>
</g>
<!-- TLD&#45;&gt;RESOLVER -->
<g id="edge6" class="edge">
<title>TLD&#45;&gt;RESOLVER</title>
<path fill="none" stroke="#000000" d="M268.6777,-36.8128C275.848,-41.5784 282.2645,-47.4933 286.671,-54.8 291.1801,-62.2768 288.9337,-70.0173 283.8537,-77.0566"/>
<polygon fill="#000000" stroke="#000000" points="280.8669,-75.1472 276.8236,-84.9402 286.0914,-79.806 280.8669,-75.1472"/>
<text text-anchor="middle" x="332.1775" y="-57.8" font-family="Helvetica,sans-Serif" font-size="10.00" fill="#000000">authoritative server</text>
</g>
<!-- AUTH&#45;&gt;RESOLVER -->
<g id="edge8" class="edge">
<title>AUTH&#45;&gt;RESOLVER</title>
<path fill="none" stroke="#000000" d="M452.525,-36.5456C453.5596,-46.6274 452.8096,-58.7274 445.671,-66.8 429.3241,-85.2855 370.1724,-94.4815 321.262,-98.9956"/>
<polygon fill="#000000" stroke="#000000" points="320.6582,-95.5349 310.9996,-99.8895 321.2656,-102.5085 320.6582,-95.5349"/>
<text text-anchor="middle" x="505.305" y="-57.8" font-family="Helvetica,sans-Serif" font-size="10.00" fill="#000000">A record: 93.184.216.34</text>
</g>
</g>
</svg>
